<svg width="529.92939453125px" height="122px" xmlns="http://www.w3.org/2000/svg" viewBox="-14.964697265624977 14 529.92939453125 122" style="background:#051103" preserveAspectRatio="xMidYMid"><defs><linearGradient id="editing-glowing-gradient" x1="0.8146601955249186" x2="0.18533980447508142" y1="0.8885729807284856" y2="0.11142701927151444"><stop offset="0" stop-color="#67ff43"></stop><stop offset="1" stop-color="#90ffff"></stop></linearGradient><filter id="editing-glowing" x="-100%" y="-100%" width="300%" height="300%"><feGaussianBlur in="SourceGraphic" result="blur" stdDeviation="10"></feGaussianBlur><feMerge><feMergeNode in="blur"></feMergeNode><feMergeNode in="SourceGraphic"></feMergeNode></feMerge></filter></defs><g filter="url(#editing-glowing)"><g transform="translate(63.047401428222656, 98.68000221252441)"><path d="M7.17 0L10.88-18.82L10.88-18.82Q9.02-36.16 2.50-39.87L2.50-39.87L2.50-39.87Q3.84-41.54 6.02-42.46L6.02-42.46L6.02-42.46Q8.19-43.39 10.82-43.39L10.82-43.39L10.82-43.39Q13.44-43.39 15.42-42.46L15.42-42.46L15.42-42.46Q17.41-41.54 18.69-39.55L18.69-39.55L18.69-39.55Q21.12-35.78 21.12-26.75L21.12-26.75L21.12-22.14L21.12-22.14Q24.96-33.41 28.80-38.27L28.80-38.27L28.80-38.27Q32.70-43.26 37.57-43.26L37.57-43.26L37.57-43.26Q39.49-43.26 40.77-42.27L40.77-42.27L40.77-42.27Q42.05-41.28 42.69-39.81L42.69-39.81L42.69-39.81Q37.76-37.63 33.02-31.36L33.02-31.36L33.02-31.36Q28.29-25.09 25.22-16.32L25.22-16.32L21.44 0L7.17 0ZM50.05 1.28L50.05 1.28L50.05 1.28Q35.97 1.28 35.97-11.97L35.97-11.97L35.97-11.97Q35.97-21.38 41.15-27.46L41.15-27.46L41.15-27.46Q46.66-33.92 56.19-33.92L56.19-33.92L56.19-33.92Q63.10-33.92 66.62-30.72L66.62-30.72L66.62-30.72Q70.14-27.52 70.14-20.80L70.14-20.80L70.14-20.80Q70.14-10.56 64.64-4.61L64.64-4.61L64.64-4.61Q59.26 1.28 50.05 1.28ZM51.71-26.56L51.71-26.56L51.71-26.56Q50.94-24.83 50.34-22.24L50.34-22.24L50.34-22.24Q49.73-19.65 48.96-15.55L48.96-15.55L48.96-15.55Q48.19-11.46 48.19-6.40L48.19-6.40L48.19-6.40Q48.19-4.74 48.74-3.65L48.74-3.65L48.74-3.65Q49.28-2.56 50.75-2.56L50.75-2.56L50.75-2.56Q52.22-2.56 53.15-3.26L53.15-3.26L53.15-3.26Q54.08-3.97 54.78-5.63L54.78-5.63L54.78-5.63Q56.06-8.58 57.09-14.05L57.09-14.05L57.09-14.05Q58.11-19.52 58.21-21.89L58.21-21.89L58.21-21.89Q58.30-24.26 58.30-26.02L58.30-26.02L58.30-26.02Q58.30-27.78 57.79-28.93L57.79-28.93L57.79-28.93Q57.28-30.08 55.84-30.08L55.84-30.08L55.84-30.08Q54.40-30.08 53.44-29.18L53.44-29.18L53.44-29.18Q52.48-28.29 51.71-26.56ZM94.46-2.69L94.46-2.69L94.46-2.69Q91.39 1.28 83.78 1.28L83.78 1.28L83.78 1.28Q79.81 1.28 76.93-1.12L76.93-1.12L76.93-1.12Q74.05-3.52 74.05-6.98L74.05-6.98L74.05-6.98Q74.05-8.90 74.24-9.86L74.24-9.86L78.53-32.64L91.52-33.92L86.85-9.22L86.85-9.22Q86.59-7.81 86.59-6.98L86.59-6.98L86.59-6.98Q86.59-3.26 88.83-3.26L88.83-3.26L88.83-3.26Q91.33-3.26 93.12-6.66L93.12-6.66L93.12-6.66Q93.70-7.74 93.95-9.15L93.95-9.15L98.50-32.64L111.10-33.92L106.37-8.96L106.37-8.96Q106.18-8 106.18-6.98L106.18-6.98L106.18-6.98Q106.18-5.95 106.75-4.83L106.75-4.83L106.75-4.83Q107.33-3.71 109.18-3.46L109.18-3.46L109.18-3.46Q108.80-1.92 107.46-0.90L107.46-0.90L107.46-0.90Q104.64 1.28 101.60 1.28L101.60 1.28L101.60 1.28Q98.56 1.28 96.77 0.19L96.77 0.19L96.77 0.19Q94.98-0.90 94.46-2.69ZM134.59-17.98L134.59-17.98L134.59-17.98Q136.90-22.08 136.90-26.24L136.90-26.24L136.90-26.24Q136.90-28.99 134.91-28.99L134.91-28.99L134.91-28.99Q133.38-28.99 131.78-26.37L131.78-26.37L131.78-26.37Q130.11-23.74 129.60-20.35L129.60-20.35L126.27 0L113.02 1.28L119.55-32.64L130.11-33.92L128.96-27.46L128.96-27.46Q132.10-33.92 139.14-33.92L139.14-33.92L139.14-33.92Q142.85-33.92 144.86-32L144.86-32L144.86-32Q146.88-30.08 146.88-26.14L146.88-26.14L146.88-26.14Q146.88-22.21 144.29-19.71L144.29-19.71L144.29-19.71Q141.70-17.22 137.28-17.22L137.28-17.22L137.28-17.22Q135.36-17.22 134.59-17.98ZM153.34 0L145.98 0L157.57-42.24L170.94-42.24L173.89-18.11L185.79-42.24L196.99-42.24L198.14-10.62L198.14-10.62Q198.40-4.35 201.47-2.43L201.47-2.43L201.47-2.43Q200.77-1.15 198.72 0.06L198.72 0.06L198.72 0.06Q196.67 1.28 193.95 1.28L193.95 1.28L193.95 1.28Q191.23 1.28 189.63 0.51L189.63 0.51L189.63 0.51Q188.03-0.26 187.14-1.54L187.14-1.54L187.14-1.54Q185.54-3.84 185.54-8.26L185.54-8.26L185.54-28.03L172.93 0L164.99 0L160.51-28.74L153.34 0ZM207.01-1.92L207.01-1.92L207.01-1.92Q205.50-3.58 204.83-6.21L204.83-6.21L204.83-6.21Q204.16-8.83 204.16-13.12L204.16-13.12L204.16-13.12Q204.16-17.41 205.63-21.31L205.63-21.31L205.63-21.31Q207.10-25.22 209.79-28.03L209.79-28.03L209.79-28.03Q215.30-33.92 224.38-33.92L224.38-33.92L224.38-33.92Q227.65-33.92 230.02-32.83L230.02-32.83L240.96-33.92L236.22-8.96L236.22-8.96Q236.03-8.19 236.03-6.78L236.03-6.78L236.03-6.78Q236.03-5.38 236.90-4.48L236.90-4.48L236.90-4.48Q237.76-3.58 239.04-3.46L239.04-3.46L239.04-3.46Q238.40-1.28 236.06 0L236.06 0L236.06 0Q233.73 1.28 231.10 1.28L231.10 1.28L231.10 1.28Q228.48 1.28 226.72 0.29L226.72 0.29L226.72 0.29Q224.96-0.70 224.45-2.37L224.45-2.37L224.45-2.37Q223.42-0.77 221.25 0.26L221.25 0.26L221.25 0.26Q219.07 1.28 216.16 1.28L216.16 1.28L216.16 1.28Q213.25 1.28 210.88 0.51L210.88 0.51L210.88 0.51Q208.51-0.26 207.01-1.92ZM220.51-27.90L220.51-27.90L220.51-27.90Q219.78-26.75 219.14-24.80L219.14-24.80L219.14-24.80Q218.50-22.85 217.44-17.63L217.44-17.63L217.44-17.63Q216.38-12.42 216.38-8.70L216.38-8.70L216.38-8.70Q216.38-4.99 216.96-3.90L216.96-3.90L216.96-3.90Q217.54-2.82 218.56-2.82L218.56-2.82L218.56-2.82Q220.61-2.82 222.11-4.77L222.11-4.77L222.11-4.77Q223.62-6.72 224.19-10.18L224.19-10.18L227.58-28.93L227.58-28.93Q226.24-30.08 224.67-30.08L224.67-30.08L224.67-30.08Q223.10-30.08 222.18-29.57L222.18-29.57L222.18-29.57Q221.25-29.06 220.51-27.90ZM264.45-17.98L264.45-17.98L264.45-17.98Q266.75-22.08 266.75-26.24L266.75-26.24L266.75-26.24Q266.75-28.99 264.77-28.99L264.77-28.99L264.77-28.99Q263.23-28.99 261.63-26.37L261.63-26.37L261.63-26.37Q259.97-23.74 259.46-20.35L259.46-20.35L256.13 0L242.88 1.28L249.41-32.64L259.97-33.92L258.82-27.46L258.82-27.46Q261.95-33.92 268.99-33.92L268.99-33.92L268.99-33.92Q272.70-33.92 274.72-32L274.72-32L274.72-32Q276.74-30.08 276.74-26.14L276.74-26.14L276.74-26.14Q276.74-22.21 274.14-19.71L274.14-19.71L274.14-19.71Q271.55-17.22 267.14-17.22L267.14-17.22L267.14-17.22Q265.22-17.22 264.45-17.98ZM294.27-30.34L294.27-30.34L294.27-30.34Q297.73-33.92 305.02-33.92L305.02-33.92L305.02-33.92Q309.06-33.92 311.26-31.78L311.26-31.78L311.26-31.78Q313.47-29.63 313.47-25.70L313.47-25.70L313.47-25.70Q313.47-21.76 311.26-18.98L311.26-18.98L311.26-18.98Q309.06-16.19 304.96-15.04L304.96-15.04L304.96-15.04Q305.28-13.76 305.73-12.42L305.73-12.42L306.62-9.86L306.62-9.86Q307.84-6.59 308.80-5.44L308.80-5.44L308.80-5.44Q309.76-4.29 311.04-3.90L311.04-3.90L311.04-3.90Q310.34-1.28 307.78 0.13L307.78 0.13L307.78 0.13Q305.73 1.28 302.91 1.28L302.91 1.28L302.91 1.28Q294.66 1.28 293.57-11.46L293.57-11.46L293.57-11.46Q293.38-13.25 293.38-15.04L293.38-15.04L293.38-15.04Q296.58-15.94 298.82-18.94L298.82-18.94L298.82-18.94Q301.06-21.95 301.06-25.47L301.06-25.47L301.06-25.47Q301.06-28.99 298.56-28.99L298.56-28.99L298.56-28.99Q296.77-28.99 295.36-27.01L295.36-27.01L295.36-27.01Q293.95-25.02 293.31-21.63L293.31-21.63L289.09 0L276.16 1.28L285.12-44.80L297.98-46.08L296.51-38.46L296.51-38.46Q295.55-33.09 294.27-30.34ZM342.34-10.82L342.34-10.82L342.34-10.82Q343.94-9.73 343.94-7.33L343.94-7.33L343.94-7.33Q343.94-4.93 342.72-3.39L342.72-3.39L342.72-3.39Q341.50-1.86 339.52-0.83L339.52-0.83L339.52-0.83Q335.42 1.28 331.01 1.28L331.01 1.28L331.01 1.28Q326.59 1.28 324.00 0.32L324.00 0.32L324.00 0.32Q321.41-0.64 319.68-2.43L319.68-2.43L319.68-2.43Q316.29-5.82 316.29-12.03L316.29-12.03L316.29-12.03Q316.29-21.70 321.54-27.58L321.54-27.58L321.54-27.58Q327.17-33.92 336.96-33.92L336.96-33.92L336.96-33.92Q343.04-33.92 346.05-31.36L346.05-31.36L346.05-31.36Q348.29-29.44 348.29-26.30L348.29-26.30L348.29-26.30Q348.29-15.04 328.83-15.04L328.83-15.04L328.83-15.04Q328.58-13.38 328.58-11.97L328.58-11.97L328.58-11.97Q328.58-9.02 329.89-7.90L329.89-7.90L329.89-7.90Q331.20-6.78 333.63-6.78L333.63-6.78L333.63-6.78Q336.06-6.78 338.66-7.90L338.66-7.90L338.66-7.90Q341.25-9.02 342.34-10.82ZM329.28-17.79L329.28-17.79L329.28-17.79Q333.82-17.79 336.45-20.61L336.45-20.61L336.45-20.61Q339.07-23.30 339.07-27.58L339.07-27.58L339.07-27.58Q339.07-29.06 338.53-29.86L338.53-29.86L338.53-29.86Q337.98-30.66 336.90-30.66L336.90-30.66L336.90-30.66Q335.81-30.66 334.88-30.24L334.88-30.24L334.88-30.24Q333.95-29.82 332.99-28.42L332.99-28.42L332.99-28.42Q330.62-25.22 329.28-17.79ZM351.49-6.40L351.49-6.40L351.49-6.40Q351.49-8.13 352.38-12.48L352.38-12.48L355.78-29.76L352.00-29.76L352.26-31.68L352.26-31.68Q359.94-33.98 367.36-39.62L367.36-39.62L370.43-39.62L368.90-32.64L373.89-32.64L373.31-29.76L368.38-29.76L365.12-12.48L365.12-12.48Q364.29-8.51 364.29-7.17L364.29-7.17L364.29-7.17Q364.29-4.10 366.98-3.46L366.98-3.46L366.98-3.46Q366.34-1.28 364.03 0L364.03 0L364.03 0Q361.73 1.28 358.46 1.28L358.46 1.28L358.46 1.28Q355.20 1.28 353.34-0.77L353.34-0.77L353.34-0.77Q351.49-2.82 351.49-6.40Z" fill="url(#editing-glowing-gradient)"></path></g></g><style>text {
  font-size: 64px;
  font-family: Arial Black;
  dominant-baseline: central;
  text-anchor: middle;
}</style></svg>